# xmcd CD database file
#
# Track frame offsets:
#	150
#	22790
#	41950
#	65525
#	88067
#	110770
#	128105
#	150192
#	169247
#	190220
#	209617
#	227817
#	259970
#
# Disc length: 4440 seconds
#
# Revision: 0
# Processed by: cddbd v1.5.1PL0 Copyright (c) Steve Scherf et al.
# Submitted via: CDex 1.51
#
DISCID=b511560d
DTITLE=島谷ひとみ - 追憶＋LOVE LETTER
DYEAR=2004
DGENRE=JPop
TTITLE0=追憶＋LOVE LETTER
TTITLE1=ANGELUS−アンジェラス−
TTITLE2=「またね。」
TTITLE3=久遠-kuon-
TTITLE4=Z！Z！Z！-Zip！Zip！Zipangu！-
TTITLE5=Domenica
TTITLE6=Jewel of Kiss
TTITLE7=はつこい
TTITLE8=Viola
TTITLE9=ハナムケノ言葉
TTITLE10=YUME日和(Album Version)
TTITLE11=綺羅星
TTITLE12=DATA
EXTD=YEAR: 2004
EXTT0=
EXTT1=
EXTT2=
EXTT3=
EXTT4=
EXTT5=
EXTT6=
EXTT7=
EXTT8=
EXTT9=
EXTT10=
EXTT11=
EXTT12=
PLAYORDER=
